<svg enable-background="new 0 0 1920 1080" height="1080" viewBox="0 0 1920 1080" width="1920" xmlns="http://www.w3.org/2000/svg"><path d="m1500 446.51v186.98c0 118.55-18.7 187.02-62.52 228.96-42.73 40.899-108.79 57.58-227.99 57.58h-498.98c-245.58 0-290.51-96.49-290.51-286.54v-186.98c0-98.09 0-168.97 37.87-217.08 38.83-49.34 112.03-69.46 252.64-69.46h498.971c137.46 0 209.439 18.9 248.42 65.24 39.169 46.55 42.099 117.85 42.099 221.3zm-386.64 119.31c11.51-6.021 18.72-17.94 18.71-30.93-.021-12.99-7.261-24.89-18.79-30.87l-226.58-117.66c-10.8-5.61-23.74-5.18-34.15 1.14-10.4 6.32-16.75 17.61-16.75 29.78v236.08c0 12.18 6.37 23.479 16.79 29.8 5.54 3.35 11.79 5.04 18.05 5.04 5.53 0 11.07-1.32 16.14-3.96z" fill="#f00"/></svg>